<?xml version="1.0" encoding="utf-8"?>
<svg version="1.1" id="Layer_1" xmlns="http://www.w3.org/2000/svg" xmlns:xlink="http://www.w3.org/1999/xlink" x="0px" y="0px" viewBox="0 0 1024 768" enable-background="new 0 0 1024 768" xml:space="preserve">
	<path d="M45.56,285.33c-7.98-4.69-14.25-11.12-18.81-19.29c-4.57-8.17-6.85-17.27-6.85-27.3
		c0-10.29,2.19-19.52,6.56-27.69c4.37-8.17,10.42-14.57,18.14-19.2c7.72-4.63,16.4-6.95,26.05-6.95c16.08,0,29.14,6.17,39.17,18.52
		c1.03,1.16,1.54,2.51,1.54,4.05c0,2.06-1.09,3.86-3.28,5.4c-1.16,0.77-2.38,1.16-3.67,1.16c-1.93,0-3.8-0.96-5.6-2.89
		c-3.86-4.24-8.1-7.43-12.73-9.55c-4.63-2.12-9.78-3.18-15.44-3.18c-7.08,0-13.38,1.71-18.91,5.11c-5.53,3.41-9.81,8.2-12.83,14.37
		c-3.02,6.17-4.53,13.12-4.53,20.84c0,7.59,1.61,14.44,4.82,20.55c3.21,6.11,7.72,10.9,13.51,14.38c5.79,3.47,12.41,5.21,19.87,5.21
		c10.29,0,18.59-2.76,24.89-8.3c1.67-1.41,3.41-2.12,5.21-2.12c1.54,0,2.96,0.52,4.25,1.54c1.8,1.54,2.7,3.28,2.7,5.21
		c0,1.67-0.65,3.09-1.93,4.24c-9.26,8.62-20.97,12.93-35.12,12.93C62.54,292.38,53.54,290.03,45.56,285.33z"/>
	<path d="M200.98,186.83c3.15,1.42,4.73,3.41,4.73,5.98c0,0.77-0.07,1.35-0.19,1.74c-0.52,1.8-1.32,3.02-2.41,3.67
		c-1.09,0.65-2.6,0.96-4.53,0.96c-1.16,0-3.15-0.13-5.98-0.39c-1.03-0.13-2.57-0.19-4.63-0.19c-9.65,0-17.53,2.57-23.64,7.72
		c-6.11,5.15-9.17,11.84-9.17,20.07v57.69c0,2.32-0.65,4.12-1.93,5.4c-1.29,1.29-3.09,1.93-5.4,1.93s-4.12-0.64-5.4-1.93
		c-1.29-1.28-1.93-3.09-1.93-5.4V193.2c0-2.32,0.64-4.12,1.93-5.4c1.28-1.28,3.09-1.93,5.4-1.93s4.12,0.65,5.4,1.93
		c1.28,1.29,1.93,3.09,1.93,5.4v8.49c3.73-5.4,8.49-9.58,14.28-12.54c5.79-2.96,12.03-4.44,18.72-4.44
		C193.55,184.71,197.83,185.42,200.98,186.83z"/>
	<path d="M239.38,285.43c-8.17-4.63-14.57-11.03-19.2-19.2c-4.63-8.17-6.95-17.33-6.95-27.5
		c0-10.16,2.32-19.36,6.95-27.59c4.63-8.23,11.03-14.66,19.2-19.29c8.17-4.63,17.33-6.95,27.5-6.95c10.16,0,19.29,2.32,27.4,6.95
		c8.1,4.63,14.5,11.06,19.2,19.29c4.69,8.23,7.04,17.43,7.04,27.59c0,10.16-2.32,19.33-6.95,27.5c-4.63,8.17-11.03,14.57-19.2,19.2
		c-8.17,4.63-17.33,6.95-27.5,6.95C256.71,292.38,247.55,290.06,239.38,285.43z M286.94,273.66c5.92-3.47,10.55-8.26,13.89-14.38
		c3.34-6.11,5.02-12.96,5.02-20.55c0-7.72-1.67-14.63-5.02-20.74c-3.35-6.11-7.98-10.9-13.89-14.38
		c-5.92-3.47-12.61-5.21-20.07-5.21c-7.33,0-13.99,1.74-19.97,5.21c-5.98,3.47-10.68,8.27-14.09,14.38
		c-3.41,6.11-5.11,13.02-5.11,20.74c0,7.59,1.7,14.44,5.11,20.55c3.41,6.11,8.1,10.9,14.09,14.38c5.98,3.47,12.64,5.21,19.97,5.21
		C274.33,278.87,281.02,277.13,286.94,273.66z"/>
	<path d="M443.23,187.9c1.41,1.35,2.12,3.12,2.12,5.31v90.69c0,2.19-0.71,3.99-2.12,5.4
		c-1.42,1.42-3.22,2.12-5.4,2.12c-2.19,0-3.96-0.71-5.31-2.12c-1.35-1.41-2.03-3.21-2.03-5.4v-6.56
		c-4.24,4.76-9.39,8.49-15.44,11.19c-6.05,2.7-12.61,4.05-19.68,4.05c-9.14,0-17.34-1.93-24.6-5.79
		c-7.27-3.86-12.96-9.48-17.08-16.88c-4.12-7.4-6.17-16.24-6.17-26.53V193.2c0-2.06,0.71-3.79,2.12-5.21
		c1.41-1.41,3.15-2.12,5.21-2.12c2.19,0,3.99,0.71,5.4,2.12c1.41,1.42,2.12,3.15,2.12,5.21v50.17c0,11.45,3.18,20.16,9.55,26.14
		s14.69,8.97,24.99,8.97c6.3,0,11.99-1.22,17.08-3.67c5.08-2.44,9.1-5.82,12.06-10.13c2.96-4.31,4.44-9.1,4.44-14.38V193.2
		c0-2.19,0.68-3.96,2.03-5.31c1.35-1.35,3.12-2.03,5.31-2.03C440.01,185.87,441.81,186.54,443.23,187.9z"/>
	<path d="M581.76,193.2v45.34c0,10.03-2.35,19.17-7.04,27.4c-4.7,8.23-11.13,14.7-19.29,19.39
		c-8.17,4.7-17.27,7.04-27.3,7.04s-19.13-2.35-27.3-7.04c-8.17-4.69-14.6-11.16-19.29-19.39c-4.7-8.23-7.04-17.37-7.04-27.4
		s2.28-19.13,6.85-27.3c4.56-8.17,10.81-14.6,18.72-19.29c7.91-4.69,16.75-7.04,26.53-7.04c8.36,0,16.02,1.77,22.96,5.31
		c6.95,3.54,12.67,8.39,17.17,14.57v-56.53c0-2.19,0.71-3.99,2.12-5.4c1.41-1.41,3.21-2.12,5.4-2.12c2.19,0,3.96,0.71,5.31,2.12
		c1.35,1.42,2.03,3.22,2.03,5.4v43.22C581.69,191.85,581.76,192.43,581.76,193.2z M547.99,273.56c5.91-3.54,10.58-8.36,13.99-14.47
		c3.41-6.11,5.11-12.96,5.11-20.55c0-2.19-0.07-3.79-0.19-4.82c-0.13-0.26-0.19-0.58-0.19-0.96c-1.29-10.03-5.5-18.26-12.64-24.7
		c-7.14-6.43-15.79-9.65-25.95-9.65c-7.33,0-13.99,1.74-19.97,5.21c-5.98,3.47-10.68,8.27-14.09,14.38
		c-3.41,6.11-5.11,12.96-5.11,20.55c0,7.59,1.7,14.44,5.11,20.55c3.41,6.11,8.1,10.93,14.09,14.47c5.98,3.54,12.64,5.31,19.97,5.31
		S542.08,277.1,547.99,273.56z"/>
	<path d="M608.19,291.22c-2.19-2.19-3.28-4.82-3.28-7.91c0-3.21,1.12-5.92,3.38-8.1c2.25-2.19,4.85-3.28,7.81-3.28
		c3.09,0,5.72,1.13,7.91,3.38c2.19,2.25,3.28,4.92,3.28,8.01c0,3.09-1.09,5.73-3.28,7.91c-2.19,2.19-4.82,3.28-7.91,3.28
		C613.01,294.5,610.38,293.4,608.19,291.22z"/>
	<path fill="none" stroke="#000000" stroke-width="20" stroke-linecap="round" stroke-miterlimit="10" d="
	M869.92,163.67L688.46,604.33c-18.31,37.14-57.42,169.75-258.9,135.1"/>
	<circle fill="none" stroke="#000000" stroke-width="20" stroke-miterlimit="10" cx="454.15" cy="493.72" r="149.25"/>
	<path fill="none" stroke="#000000" stroke-width="20" stroke-linecap="round" stroke-miterlimit="10" d="
		M1009.87,28.57c-201.48-34.66-240.59,97.96-258.9,135.1L588,559.97"/>
</svg>
